<mxfile host="app.diagrams.net" modified="2021-12-03T11:16:57.103Z" agent="5.0 (Windows NT 10.0; Win64; x64) AppleWebKit/537.36 (KHTML, like Gecko) Chrome/96.0.4664.45 Safari/537.36" etag="dcVaTR5Z1MRjO3qRlQqj" version="15.8.8" type="github">
  <diagram id="rTqJBYyRMH5e7OTW0QIE" name="Page-1">
    <mxGraphModel dx="1249" dy="984" grid="1" gridSize="10" guides="1" tooltips="1" connect="1" arrows="1" fold="1" page="1" pageScale="1" pageWidth="827" pageHeight="1169" math="0" shadow="0">
      <root>
        <mxCell id="0" />
        <mxCell id="1" parent="0" />
        <mxCell id="MtueBHpG_OoFy97STMay-64" style="edgeStyle=orthogonalEdgeStyle;rounded=0;orthogonalLoop=1;jettySize=auto;html=1;exitX=0.75;exitY=1;exitDx=0;exitDy=0;entryX=0.5;entryY=0;entryDx=0;entryDy=0;" edge="1" parent="1" source="JlZosn0SwFI7n011trlE-1" target="JlZosn0SwFI7n011trlE-9">
          <mxGeometry relative="1" as="geometry">
            <Array as="points">
              <mxPoint x="333" y="205" />
              <mxPoint x="170" y="205" />
            </Array>
          </mxGeometry>
        </mxCell>
        <mxCell id="MtueBHpG_OoFy97STMay-65" value="1,N" style="edgeLabel;html=1;align=center;verticalAlign=middle;resizable=0;points=[];" vertex="1" connectable="0" parent="MtueBHpG_OoFy97STMay-64">
          <mxGeometry x="0.1083" y="-1" relative="1" as="geometry">
            <mxPoint as="offset" />
          </mxGeometry>
        </mxCell>
        <mxCell id="JlZosn0SwFI7n011trlE-1" value="Usuario" style="swimlane;fontStyle=0;childLayout=stackLayout;horizontal=1;startSize=30;horizontalStack=0;resizeParent=1;resizeParentMax=0;resizeLast=0;collapsible=1;marginBottom=0;" parent="1" vertex="1" collapsed="1">
          <mxGeometry x="510" y="170" width="70" height="30" as="geometry">
            <mxRectangle x="130" y="30" width="140" height="300" as="alternateBounds" />
          </mxGeometry>
        </mxCell>
        <mxCell id="JlZosn0SwFI7n011trlE-2" value="id (PK)" style="text;strokeColor=none;fillColor=none;align=left;verticalAlign=middle;spacingLeft=4;spacingRight=4;overflow=hidden;points=[[0,0.5],[1,0.5]];portConstraint=eastwest;rotatable=0;" parent="JlZosn0SwFI7n011trlE-1" vertex="1">
          <mxGeometry y="30" width="70" height="30" as="geometry" />
        </mxCell>
        <mxCell id="JlZosn0SwFI7n011trlE-3" value="nombre" style="text;strokeColor=none;fillColor=none;align=left;verticalAlign=middle;spacingLeft=4;spacingRight=4;overflow=hidden;points=[[0,0.5],[1,0.5]];portConstraint=eastwest;rotatable=0;" parent="JlZosn0SwFI7n011trlE-1" vertex="1">
          <mxGeometry y="60" width="70" height="30" as="geometry" />
        </mxCell>
        <mxCell id="JlZosn0SwFI7n011trlE-4" value="apellidos" style="text;strokeColor=none;fillColor=none;align=left;verticalAlign=middle;spacingLeft=4;spacingRight=4;overflow=hidden;points=[[0,0.5],[1,0.5]];portConstraint=eastwest;rotatable=0;" parent="JlZosn0SwFI7n011trlE-1" vertex="1">
          <mxGeometry y="90" width="70" height="30" as="geometry" />
        </mxCell>
        <mxCell id="MtueBHpG_OoFy97STMay-6" value="avatar" style="text;strokeColor=none;fillColor=none;align=left;verticalAlign=middle;spacingLeft=4;spacingRight=4;overflow=hidden;points=[[0,0.5],[1,0.5]];portConstraint=eastwest;rotatable=0;" vertex="1" parent="JlZosn0SwFI7n011trlE-1">
          <mxGeometry y="120" width="70" height="30" as="geometry" />
        </mxCell>
        <mxCell id="MtueBHpG_OoFy97STMay-27" value="bio" style="text;strokeColor=none;fillColor=none;align=left;verticalAlign=middle;spacingLeft=4;spacingRight=4;overflow=hidden;points=[[0,0.5],[1,0.5]];portConstraint=eastwest;rotatable=0;" vertex="1" parent="JlZosn0SwFI7n011trlE-1">
          <mxGeometry y="150" width="70" height="30" as="geometry" />
        </mxCell>
        <mxCell id="MtueBHpG_OoFy97STMay-24" value="direccion" style="text;strokeColor=none;fillColor=none;align=left;verticalAlign=middle;spacingLeft=4;spacingRight=4;overflow=hidden;points=[[0,0.5],[1,0.5]];portConstraint=eastwest;rotatable=0;" vertex="1" parent="JlZosn0SwFI7n011trlE-1">
          <mxGeometry y="180" width="70" height="30" as="geometry" />
        </mxCell>
        <mxCell id="MtueBHpG_OoFy97STMay-16" value="rol" style="text;strokeColor=none;fillColor=none;align=left;verticalAlign=middle;spacingLeft=4;spacingRight=4;overflow=hidden;points=[[0,0.5],[1,0.5]];portConstraint=eastwest;rotatable=0;" vertex="1" parent="JlZosn0SwFI7n011trlE-1">
          <mxGeometry y="210" width="70" height="30" as="geometry" />
        </mxCell>
        <mxCell id="MtueBHpG_OoFy97STMay-3" value="email" style="text;strokeColor=none;fillColor=none;align=left;verticalAlign=middle;spacingLeft=4;spacingRight=4;overflow=hidden;points=[[0,0.5],[1,0.5]];portConstraint=eastwest;rotatable=0;" vertex="1" parent="JlZosn0SwFI7n011trlE-1">
          <mxGeometry y="240" width="70" height="30" as="geometry" />
        </mxCell>
        <mxCell id="MtueBHpG_OoFy97STMay-26" value="contraseÃ±a" style="text;strokeColor=none;fillColor=none;align=left;verticalAlign=middle;spacingLeft=4;spacingRight=4;overflow=hidden;points=[[0,0.5],[1,0.5]];portConstraint=eastwest;rotatable=0;" vertex="1" parent="JlZosn0SwFI7n011trlE-1">
          <mxGeometry y="270" width="70" height="30" as="geometry" />
        </mxCell>
        <mxCell id="MtueBHpG_OoFy97STMay-71" style="edgeStyle=orthogonalEdgeStyle;rounded=0;orthogonalLoop=1;jettySize=auto;html=1;entryX=0.75;entryY=0;entryDx=0;entryDy=0;" edge="1" parent="1" source="JlZosn0SwFI7n011trlE-5" target="JlZosn0SwFI7n011trlE-13">
          <mxGeometry relative="1" as="geometry" />
        </mxCell>
        <mxCell id="MtueBHpG_OoFy97STMay-72" value="N:M" style="edgeLabel;html=1;align=center;verticalAlign=middle;resizable=0;points=[];" vertex="1" connectable="0" parent="MtueBHpG_OoFy97STMay-71">
          <mxGeometry x="-0.1193" y="3" relative="1" as="geometry">
            <mxPoint y="-1" as="offset" />
          </mxGeometry>
        </mxCell>
        <mxCell id="JlZosn0SwFI7n011trlE-5" value="Pasajero" style="swimlane;fontStyle=0;childLayout=stackLayout;horizontal=1;startSize=30;horizontalStack=0;resizeParent=1;resizeParentMax=0;resizeLast=0;collapsible=1;marginBottom=0;" parent="1" vertex="1" collapsed="1">
          <mxGeometry x="420" y="340" width="80" height="30" as="geometry">
            <mxRectangle x="420" y="340" width="140" height="600" as="alternateBounds" />
          </mxGeometry>
        </mxCell>
        <mxCell id="JlZosn0SwFI7n011trlE-6" value="id (PK)" style="text;strokeColor=none;fillColor=none;align=left;verticalAlign=middle;spacingLeft=4;spacingRight=4;overflow=hidden;points=[[0,0.5],[1,0.5]];portConstraint=eastwest;rotatable=0;" parent="JlZosn0SwFI7n011trlE-5" vertex="1">
          <mxGeometry y="30" width="80" height="30" as="geometry" />
        </mxCell>
        <mxCell id="MtueBHpG_OoFy97STMay-25" value="direccion" style="text;strokeColor=none;fillColor=none;align=left;verticalAlign=middle;spacingLeft=4;spacingRight=4;overflow=hidden;points=[[0,0.5],[1,0.5]];portConstraint=eastwest;rotatable=0;" vertex="1" parent="JlZosn0SwFI7n011trlE-5">
          <mxGeometry y="60" width="80" height="30" as="geometry" />
        </mxCell>
        <mxCell id="JlZosn0SwFI7n011trlE-8" value="Tipo_Documento" style="text;strokeColor=none;fillColor=none;align=left;verticalAlign=middle;spacingLeft=4;spacingRight=4;overflow=hidden;points=[[0,0.5],[1,0.5]];portConstraint=eastwest;rotatable=0;" parent="JlZosn0SwFI7n011trlE-5" vertex="1">
          <mxGeometry y="90" width="80" height="30" as="geometry" />
        </mxCell>
        <mxCell id="MtueBHpG_OoFy97STMay-11" value="fecha_nacimiento" style="text;strokeColor=none;fillColor=none;align=left;verticalAlign=middle;spacingLeft=4;spacingRight=4;overflow=hidden;points=[[0,0.5],[1,0.5]];portConstraint=eastwest;rotatable=0;" vertex="1" parent="JlZosn0SwFI7n011trlE-5">
          <mxGeometry y="120" width="80" height="30" as="geometry" />
        </mxCell>
        <mxCell id="MtueBHpG_OoFy97STMay-15" value="documento" style="text;strokeColor=none;fillColor=none;align=left;verticalAlign=middle;spacingLeft=4;spacingRight=4;overflow=hidden;points=[[0,0.5],[1,0.5]];portConstraint=eastwest;rotatable=0;" vertex="1" parent="JlZosn0SwFI7n011trlE-5">
          <mxGeometry y="150" width="80" height="30" as="geometry" />
        </mxCell>
        <mxCell id="MtueBHpG_OoFy97STMay-33" value="pais_expedicion" style="text;strokeColor=none;fillColor=none;align=left;verticalAlign=middle;spacingLeft=4;spacingRight=4;overflow=hidden;points=[[0,0.5],[1,0.5]];portConstraint=eastwest;rotatable=0;" vertex="1" parent="JlZosn0SwFI7n011trlE-5">
          <mxGeometry y="180" width="80" height="30" as="geometry" />
        </mxCell>
        <mxCell id="MtueBHpG_OoFy97STMay-34" value="fecha_expedicion" style="text;strokeColor=none;fillColor=none;align=left;verticalAlign=middle;spacingLeft=4;spacingRight=4;overflow=hidden;points=[[0,0.5],[1,0.5]];portConstraint=eastwest;rotatable=0;" vertex="1" parent="JlZosn0SwFI7n011trlE-5">
          <mxGeometry y="210" width="80" height="30" as="geometry" />
        </mxCell>
        <mxCell id="MtueBHpG_OoFy97STMay-35" value="fecha_expiracion" style="text;strokeColor=none;fillColor=none;align=left;verticalAlign=middle;spacingLeft=4;spacingRight=4;overflow=hidden;points=[[0,0.5],[1,0.5]];portConstraint=eastwest;rotatable=0;" vertex="1" parent="JlZosn0SwFI7n011trlE-5">
          <mxGeometry y="240" width="80" height="30" as="geometry" />
        </mxCell>
        <mxCell id="JlZosn0SwFI7n011trlE-7" value="nombre" style="text;strokeColor=none;fillColor=none;align=left;verticalAlign=middle;spacingLeft=4;spacingRight=4;overflow=hidden;points=[[0,0.5],[1,0.5]];portConstraint=eastwest;rotatable=0;" parent="JlZosn0SwFI7n011trlE-5" vertex="1">
          <mxGeometry y="270" width="80" height="30" as="geometry" />
        </mxCell>
        <mxCell id="MtueBHpG_OoFy97STMay-10" value="apellidos" style="text;strokeColor=none;fillColor=none;align=left;verticalAlign=middle;spacingLeft=4;spacingRight=4;overflow=hidden;points=[[0,0.5],[1,0.5]];portConstraint=eastwest;rotatable=0;" vertex="1" parent="JlZosn0SwFI7n011trlE-5">
          <mxGeometry y="300" width="80" height="30" as="geometry" />
        </mxCell>
        <mxCell id="MtueBHpG_OoFy97STMay-30" value="tipo_telefono" style="text;strokeColor=none;fillColor=none;align=left;verticalAlign=middle;spacingLeft=4;spacingRight=4;overflow=hidden;points=[[0,0.5],[1,0.5]];portConstraint=eastwest;rotatable=0;" vertex="1" parent="JlZosn0SwFI7n011trlE-5">
          <mxGeometry y="330" width="80" height="30" as="geometry" />
        </mxCell>
        <mxCell id="MtueBHpG_OoFy97STMay-31" value="codigo_pais" style="text;strokeColor=none;fillColor=none;align=left;verticalAlign=middle;spacingLeft=4;spacingRight=4;overflow=hidden;points=[[0,0.5],[1,0.5]];portConstraint=eastwest;rotatable=0;" vertex="1" parent="JlZosn0SwFI7n011trlE-5">
          <mxGeometry y="360" width="80" height="30" as="geometry" />
        </mxCell>
        <mxCell id="MtueBHpG_OoFy97STMay-32" value="telefono" style="text;strokeColor=none;fillColor=none;align=left;verticalAlign=middle;spacingLeft=4;spacingRight=4;overflow=hidden;points=[[0,0.5],[1,0.5]];portConstraint=eastwest;rotatable=0;" vertex="1" parent="JlZosn0SwFI7n011trlE-5">
          <mxGeometry y="390" width="80" height="30" as="geometry" />
        </mxCell>
        <mxCell id="MtueBHpG_OoFy97STMay-28" value="genero" style="text;strokeColor=none;fillColor=none;align=left;verticalAlign=middle;spacingLeft=4;spacingRight=4;overflow=hidden;points=[[0,0.5],[1,0.5]];portConstraint=eastwest;rotatable=0;" vertex="1" parent="JlZosn0SwFI7n011trlE-5">
          <mxGeometry y="420" width="80" height="30" as="geometry" />
        </mxCell>
        <mxCell id="MtueBHpG_OoFy97STMay-13" value="nacionalidad" style="text;strokeColor=none;fillColor=none;align=left;verticalAlign=middle;spacingLeft=4;spacingRight=4;overflow=hidden;points=[[0,0.5],[1,0.5]];portConstraint=eastwest;rotatable=0;" vertex="1" parent="JlZosn0SwFI7n011trlE-5">
          <mxGeometry y="450" width="80" height="30" as="geometry" />
        </mxCell>
        <mxCell id="MtueBHpG_OoFy97STMay-14" value="email" style="text;strokeColor=none;fillColor=none;align=left;verticalAlign=middle;spacingLeft=4;spacingRight=4;overflow=hidden;points=[[0,0.5],[1,0.5]];portConstraint=eastwest;rotatable=0;" vertex="1" parent="JlZosn0SwFI7n011trlE-5">
          <mxGeometry y="480" width="80" height="30" as="geometry" />
        </mxCell>
        <mxCell id="MtueBHpG_OoFy97STMay-12" value="telefono" style="text;strokeColor=none;fillColor=none;align=left;verticalAlign=middle;spacingLeft=4;spacingRight=4;overflow=hidden;points=[[0,0.5],[1,0.5]];portConstraint=eastwest;rotatable=0;" vertex="1" parent="JlZosn0SwFI7n011trlE-5">
          <mxGeometry y="510" width="80" height="30" as="geometry" />
        </mxCell>
        <mxCell id="MtueBHpG_OoFy97STMay-37" value="nombre_contacto" style="text;strokeColor=none;fillColor=none;align=left;verticalAlign=middle;spacingLeft=4;spacingRight=4;overflow=hidden;points=[[0,0.5],[1,0.5]];portConstraint=eastwest;rotatable=0;" vertex="1" parent="JlZosn0SwFI7n011trlE-5">
          <mxGeometry y="540" width="80" height="30" as="geometry" />
        </mxCell>
        <mxCell id="MtueBHpG_OoFy97STMay-38" value="email_contacto" style="text;strokeColor=none;fillColor=none;align=left;verticalAlign=middle;spacingLeft=4;spacingRight=4;overflow=hidden;points=[[0,0.5],[1,0.5]];portConstraint=eastwest;rotatable=0;" vertex="1" parent="JlZosn0SwFI7n011trlE-5">
          <mxGeometry y="570" width="80" height="30" as="geometry" />
        </mxCell>
        <mxCell id="MtueBHpG_OoFy97STMay-67" style="edgeStyle=orthogonalEdgeStyle;rounded=0;orthogonalLoop=1;jettySize=auto;html=1;" edge="1" parent="1" source="JlZosn0SwFI7n011trlE-9" target="MtueBHpG_OoFy97STMay-20">
          <mxGeometry relative="1" as="geometry" />
        </mxCell>
        <mxCell id="MtueBHpG_OoFy97STMay-68" value="1,1" style="edgeLabel;html=1;align=center;verticalAlign=middle;resizable=0;points=[];" vertex="1" connectable="0" parent="MtueBHpG_OoFy97STMay-67">
          <mxGeometry x="0.0713" y="-2" relative="1" as="geometry">
            <mxPoint as="offset" />
          </mxGeometry>
        </mxCell>
        <mxCell id="MtueBHpG_OoFy97STMay-69" style="edgeStyle=orthogonalEdgeStyle;rounded=0;orthogonalLoop=1;jettySize=auto;html=1;" edge="1" parent="1" source="JlZosn0SwFI7n011trlE-9" target="JlZosn0SwFI7n011trlE-5">
          <mxGeometry relative="1" as="geometry">
            <Array as="points">
              <mxPoint x="320" y="355" />
              <mxPoint x="320" y="355" />
            </Array>
          </mxGeometry>
        </mxCell>
        <mxCell id="MtueBHpG_OoFy97STMay-70" value="1,N" style="edgeLabel;html=1;align=center;verticalAlign=middle;resizable=0;points=[];" vertex="1" connectable="0" parent="MtueBHpG_OoFy97STMay-69">
          <mxGeometry x="0.1143" y="1" relative="1" as="geometry">
            <mxPoint as="offset" />
          </mxGeometry>
        </mxCell>
        <mxCell id="JlZosn0SwFI7n011trlE-9" value="Reserva" style="swimlane;fontStyle=0;childLayout=stackLayout;horizontal=1;startSize=30;horizontalStack=0;resizeParent=1;resizeParentMax=0;resizeLast=0;collapsible=1;marginBottom=0;" parent="1" vertex="1">
          <mxGeometry x="130" y="340" width="140" height="270" as="geometry">
            <mxRectangle x="130" y="340" width="80" height="30" as="alternateBounds" />
          </mxGeometry>
        </mxCell>
        <mxCell id="JlZosn0SwFI7n011trlE-10" value="id (PK)" style="text;strokeColor=none;fillColor=none;align=left;verticalAlign=middle;spacingLeft=4;spacingRight=4;overflow=hidden;points=[[0,0.5],[1,0.5]];portConstraint=eastwest;rotatable=0;" parent="JlZosn0SwFI7n011trlE-9" vertex="1">
          <mxGeometry y="30" width="140" height="30" as="geometry" />
        </mxCell>
        <mxCell id="JlZosn0SwFI7n011trlE-11" value="cod_reserva" style="text;strokeColor=none;fillColor=none;align=left;verticalAlign=middle;spacingLeft=4;spacingRight=4;overflow=hidden;points=[[0,0.5],[1,0.5]];portConstraint=eastwest;rotatable=0;" parent="JlZosn0SwFI7n011trlE-9" vertex="1">
          <mxGeometry y="60" width="140" height="30" as="geometry" />
        </mxCell>
        <mxCell id="JlZosn0SwFI7n011trlE-12" value="fecha_creacion" style="text;strokeColor=none;fillColor=none;align=left;verticalAlign=middle;spacingLeft=4;spacingRight=4;overflow=hidden;points=[[0,0.5],[1,0.5]];portConstraint=eastwest;rotatable=0;" parent="JlZosn0SwFI7n011trlE-9" vertex="1">
          <mxGeometry y="90" width="140" height="30" as="geometry" />
        </mxCell>
        <mxCell id="MtueBHpG_OoFy97STMay-42" value="metodo_pago" style="text;strokeColor=none;fillColor=none;align=left;verticalAlign=middle;spacingLeft=4;spacingRight=4;overflow=hidden;points=[[0,0.5],[1,0.5]];portConstraint=eastwest;rotatable=0;" vertex="1" parent="JlZosn0SwFI7n011trlE-9">
          <mxGeometry y="120" width="140" height="30" as="geometry" />
        </mxCell>
        <mxCell id="MtueBHpG_OoFy97STMay-49" value="precio_final" style="text;strokeColor=none;fillColor=none;align=left;verticalAlign=middle;spacingLeft=4;spacingRight=4;overflow=hidden;points=[[0,0.5],[1,0.5]];portConstraint=eastwest;rotatable=0;" vertex="1" parent="JlZosn0SwFI7n011trlE-9">
          <mxGeometry y="150" width="140" height="30" as="geometry" />
        </mxCell>
        <mxCell id="MtueBHpG_OoFy97STMay-41" value="moneda" style="text;strokeColor=none;fillColor=none;align=left;verticalAlign=middle;spacingLeft=4;spacingRight=4;overflow=hidden;points=[[0,0.5],[1,0.5]];portConstraint=eastwest;rotatable=0;" vertex="1" parent="JlZosn0SwFI7n011trlE-9">
          <mxGeometry y="180" width="140" height="30" as="geometry" />
        </mxCell>
        <mxCell id="MtueBHpG_OoFy97STMay-48" value="cancelado" style="text;strokeColor=none;fillColor=none;align=left;verticalAlign=middle;spacingLeft=4;spacingRight=4;overflow=hidden;points=[[0,0.5],[1,0.5]];portConstraint=eastwest;rotatable=0;" vertex="1" parent="JlZosn0SwFI7n011trlE-9">
          <mxGeometry y="210" width="140" height="30" as="geometry" />
        </mxCell>
        <mxCell id="MtueBHpG_OoFy97STMay-47" value="solo_ida" style="text;strokeColor=none;fillColor=none;align=left;verticalAlign=middle;spacingLeft=4;spacingRight=4;overflow=hidden;points=[[0,0.5],[1,0.5]];portConstraint=eastwest;rotatable=0;" vertex="1" parent="JlZosn0SwFI7n011trlE-9">
          <mxGeometry y="240" width="140" height="30" as="geometry" />
        </mxCell>
        <mxCell id="JlZosn0SwFI7n011trlE-13" value="Vuelo" style="swimlane;fontStyle=0;childLayout=stackLayout;horizontal=1;startSize=30;horizontalStack=0;resizeParent=1;resizeParentMax=0;resizeLast=0;collapsible=1;marginBottom=0;" parent="1" vertex="1">
          <mxGeometry x="680" y="810" width="140" height="330" as="geometry">
            <mxRectangle x="680" y="810" width="60" height="30" as="alternateBounds" />
          </mxGeometry>
        </mxCell>
        <mxCell id="JlZosn0SwFI7n011trlE-14" value="id" style="text;strokeColor=none;fillColor=none;align=left;verticalAlign=middle;spacingLeft=4;spacingRight=4;overflow=hidden;points=[[0,0.5],[1,0.5]];portConstraint=eastwest;rotatable=0;" parent="JlZosn0SwFI7n011trlE-13" vertex="1">
          <mxGeometry y="30" width="140" height="30" as="geometry" />
        </mxCell>
        <mxCell id="JlZosn0SwFI7n011trlE-15" value="cod_aerolinea" style="text;strokeColor=none;fillColor=none;align=left;verticalAlign=middle;spacingLeft=4;spacingRight=4;overflow=hidden;points=[[0,0.5],[1,0.5]];portConstraint=eastwest;rotatable=0;" parent="JlZosn0SwFI7n011trlE-13" vertex="1">
          <mxGeometry y="60" width="140" height="30" as="geometry" />
        </mxCell>
        <mxCell id="JlZosn0SwFI7n011trlE-16" value="codigo_origen" style="text;strokeColor=none;fillColor=none;align=left;verticalAlign=middle;spacingLeft=4;spacingRight=4;overflow=hidden;points=[[0,0.5],[1,0.5]];portConstraint=eastwest;rotatable=0;" parent="JlZosn0SwFI7n011trlE-13" vertex="1">
          <mxGeometry y="90" width="140" height="30" as="geometry" />
        </mxCell>
        <mxCell id="MtueBHpG_OoFy97STMay-50" value="codigo_destino" style="text;strokeColor=none;fillColor=none;align=left;verticalAlign=middle;spacingLeft=4;spacingRight=4;overflow=hidden;points=[[0,0.5],[1,0.5]];portConstraint=eastwest;rotatable=0;" vertex="1" parent="JlZosn0SwFI7n011trlE-13">
          <mxGeometry y="120" width="140" height="30" as="geometry" />
        </mxCell>
        <mxCell id="MtueBHpG_OoFy97STMay-51" value="terminal_origen" style="text;strokeColor=none;fillColor=none;align=left;verticalAlign=middle;spacingLeft=4;spacingRight=4;overflow=hidden;points=[[0,0.5],[1,0.5]];portConstraint=eastwest;rotatable=0;" vertex="1" parent="JlZosn0SwFI7n011trlE-13">
          <mxGeometry y="150" width="140" height="30" as="geometry" />
        </mxCell>
        <mxCell id="MtueBHpG_OoFy97STMay-53" value="terminal_destine" style="text;strokeColor=none;fillColor=none;align=left;verticalAlign=middle;spacingLeft=4;spacingRight=4;overflow=hidden;points=[[0,0.5],[1,0.5]];portConstraint=eastwest;rotatable=0;" vertex="1" parent="JlZosn0SwFI7n011trlE-13">
          <mxGeometry y="180" width="140" height="30" as="geometry" />
        </mxCell>
        <mxCell id="MtueBHpG_OoFy97STMay-52" value="fecha_salida" style="text;strokeColor=none;fillColor=none;align=left;verticalAlign=middle;spacingLeft=4;spacingRight=4;overflow=hidden;points=[[0,0.5],[1,0.5]];portConstraint=eastwest;rotatable=0;" vertex="1" parent="JlZosn0SwFI7n011trlE-13">
          <mxGeometry y="210" width="140" height="30" as="geometry" />
        </mxCell>
        <mxCell id="MtueBHpG_OoFy97STMay-54" value="fecha_llegada" style="text;strokeColor=none;fillColor=none;align=left;verticalAlign=middle;spacingLeft=4;spacingRight=4;overflow=hidden;points=[[0,0.5],[1,0.5]];portConstraint=eastwest;rotatable=0;" vertex="1" parent="JlZosn0SwFI7n011trlE-13">
          <mxGeometry y="240" width="140" height="30" as="geometry" />
        </mxCell>
        <mxCell id="MtueBHpG_OoFy97STMay-55" value="codigo_avion" style="text;strokeColor=none;fillColor=none;align=left;verticalAlign=middle;spacingLeft=4;spacingRight=4;overflow=hidden;points=[[0,0.5],[1,0.5]];portConstraint=eastwest;rotatable=0;" vertex="1" parent="JlZosn0SwFI7n011trlE-13">
          <mxGeometry y="270" width="140" height="30" as="geometry" />
        </mxCell>
        <mxCell id="MtueBHpG_OoFy97STMay-56" value="num_vuelo" style="text;strokeColor=none;fillColor=none;align=left;verticalAlign=middle;spacingLeft=4;spacingRight=4;overflow=hidden;points=[[0,0.5],[1,0.5]];portConstraint=eastwest;rotatable=0;" vertex="1" parent="JlZosn0SwFI7n011trlE-13">
          <mxGeometry y="300" width="140" height="30" as="geometry" />
        </mxCell>
        <mxCell id="MtueBHpG_OoFy97STMay-20" value="Itinerario" style="swimlane;fontStyle=0;childLayout=stackLayout;horizontal=1;startSize=30;horizontalStack=0;resizeParent=1;resizeParentMax=0;resizeLast=0;collapsible=1;marginBottom=0;" vertex="1" parent="1">
          <mxGeometry x="140" y="720" width="140" height="180" as="geometry">
            <mxRectangle x="140" y="720" width="80" height="30" as="alternateBounds" />
          </mxGeometry>
        </mxCell>
        <mxCell id="MtueBHpG_OoFy97STMay-21" value="id" style="text;strokeColor=none;fillColor=none;align=left;verticalAlign=middle;spacingLeft=4;spacingRight=4;overflow=hidden;points=[[0,0.5],[1,0.5]];portConstraint=eastwest;rotatable=0;" vertex="1" parent="MtueBHpG_OoFy97STMay-20">
          <mxGeometry y="30" width="140" height="30" as="geometry" />
        </mxCell>
        <mxCell id="MtueBHpG_OoFy97STMay-22" value="duracion" style="text;strokeColor=none;fillColor=none;align=left;verticalAlign=middle;spacingLeft=4;spacingRight=4;overflow=hidden;points=[[0,0.5],[1,0.5]];portConstraint=eastwest;rotatable=0;" vertex="1" parent="MtueBHpG_OoFy97STMay-20">
          <mxGeometry y="60" width="140" height="30" as="geometry" />
        </mxCell>
        <mxCell id="MtueBHpG_OoFy97STMay-57" value="codigo_origen" style="text;strokeColor=none;fillColor=none;align=left;verticalAlign=middle;spacingLeft=4;spacingRight=4;overflow=hidden;points=[[0,0.5],[1,0.5]];portConstraint=eastwest;rotatable=0;" vertex="1" parent="MtueBHpG_OoFy97STMay-20">
          <mxGeometry y="90" width="140" height="30" as="geometry" />
        </mxCell>
        <mxCell id="MtueBHpG_OoFy97STMay-58" value="codigo_destino" style="text;strokeColor=none;fillColor=none;align=left;verticalAlign=middle;spacingLeft=4;spacingRight=4;overflow=hidden;points=[[0,0.5],[1,0.5]];portConstraint=eastwest;rotatable=0;" vertex="1" parent="MtueBHpG_OoFy97STMay-20">
          <mxGeometry y="120" width="140" height="30" as="geometry" />
        </mxCell>
        <mxCell id="MtueBHpG_OoFy97STMay-59" value="num_paradas" style="text;strokeColor=none;fillColor=none;align=left;verticalAlign=middle;spacingLeft=4;spacingRight=4;overflow=hidden;points=[[0,0.5],[1,0.5]];portConstraint=eastwest;rotatable=0;" vertex="1" parent="MtueBHpG_OoFy97STMay-20">
          <mxGeometry y="150" width="140" height="30" as="geometry" />
        </mxCell>
        <mxCell id="MtueBHpG_OoFy97STMay-60" style="edgeStyle=orthogonalEdgeStyle;rounded=0;orthogonalLoop=1;jettySize=auto;html=1;" edge="1" parent="1" source="MtueBHpG_OoFy97STMay-57" target="JlZosn0SwFI7n011trlE-16">
          <mxGeometry relative="1" as="geometry">
            <Array as="points">
              <mxPoint x="570" y="805" />
              <mxPoint x="570" y="805" />
            </Array>
          </mxGeometry>
        </mxCell>
        <mxCell id="MtueBHpG_OoFy97STMay-66" value="N,M" style="edgeLabel;html=1;align=center;verticalAlign=middle;resizable=0;points=[];" vertex="1" connectable="0" parent="MtueBHpG_OoFy97STMay-60">
          <mxGeometry x="0.0593" y="-2" relative="1" as="geometry">
            <mxPoint as="offset" />
          </mxGeometry>
        </mxCell>
      </root>
    </mxGraphModel>
  </diagram>
</mxfile>
